<?xml version="1.0" standalone="no"?>
<!DOCTYPE svg PUBLIC "-//W3C//DTD SVG 20010904//EN"
 "http://www.w3.org/TR/2001/REC-SVG-20010904/DTD/svg10.dtd">
<svg version="1.0" xmlns="http://www.w3.org/2000/svg"
 width="1023.000000pt" height="1023.000000pt" viewBox="0 0 1023.000000 1023.000000"
 preserveAspectRatio="xMidYMid meet">
<metadata>
Created by potrace 1.11, written by Peter Selinger 2001-2013
</metadata>
<g transform="translate(0.000000,1023.000000) scale(0.100000,-0.100000)"
fill="#000000" stroke="none">
<path d="M1156 10214 c-291 -48 -537 -175 -745 -383 -218 -217 -346 -476 -385
-778 -10 -77 -12 -910 -11 -3973 l1 -3875 27 -125 c55 -259 175 -486 355 -668
214 -217 469 -349 767 -398 22 -3 1788 -7 3925 -8 3682 -2 3891 -2 3996 15
204 33 419 124 584 247 297 221 502 577 538 937 9 85 8 7778 -1 7845 -27 209
-118 440 -244 618 -63 90 -231 255 -326 320 -162 112 -374 197 -562 226 -131
20 -7799 20 -7919 0z m3929 -565 c124 -21 176 -38 265 -86 200 -108 341 -296
390 -519 17 -80 18 -247 18 -3916 0 -2290 -4 -3857 -9 -3893 -42 -273 -238
-516 -489 -607 -149 -55 -13 -51 -2055 -52 -1034 0 -1907 3 -1940 7 -72 8
-151 29 -196 51 -18 9 -36 16 -41 16 -5 0 -21 8 -36 18 -15 10 -49 33 -77 52
-153 101 -279 298 -316 490 -9 51 -12 911 -12 3880 0 2098 3 3845 6 3881 35
341 317 631 662 679 73 10 3771 10 3830 -1z"/>
<path d="M2205 9189 c-79 -10 -127 -19 -170 -30 -22 -6 -44 -12 -50 -14 -53
-12 -189 -70 -259 -110 -220 -125 -392 -307 -501 -530 -62 -126 -87 -202 -111
-330 -56 -305 16 -654 185 -900 74 -108 181 -219 1002 -1040 l849 -850 889
890 c623 625 904 912 941 965 102 147 176 320 205 480 26 138 28 332 6 445 -7
33 -15 74 -17 90 -9 49 -74 215 -111 285 -49 91 -133 206 -199 270 -30 30 -61
61 -67 68 -33 36 -172 131 -252 173 -177 93 -365 140 -560 142 -299 2 -567
-92 -807 -285 l-27 -21 -60 46 c-170 134 -395 226 -616 253 -79 9 -207 11
-270 3z m250 -579 c97 -20 140 -37 217 -84 135 -82 187 -147 376 -471 98 -167
105 -175 116 -153 7 12 70 120 141 238 109 183 139 226 204 290 202 198 492
247 746 125 163 -79 259 -183 338 -365 52 -120 55 -311 7 -448 -51 -146 -50
-144 -771 -867 l-678 -680 -651 650 c-358 358 -671 677 -696 709 -131 172
-169 380 -108 596 46 163 180 322 335 398 48 24 97 45 110 47 13 3 38 9 54 13
45 13 203 14 260 2z"/>
<path d="M2900 5035 c-461 -63 -879 -277 -1203 -615 -306 -318 -494 -710 -554
-1155 -10 -73 -10 -431 -1 -500 15 -108 20 -134 48 -246 179 -724 755 -1302
1479 -1483 250 -63 555 -78 801 -41 260 40 550 147 770 285 306 192 562 464
726 774 98 186 181 426 209 606 4 25 9 53 10 62 19 99 25 355 12 483 -70 713
-498 1327 -1142 1640 -154 75 -335 137 -483 165 -59 11 -120 22 -137 26 -62
13 -440 12 -535 -1z m475 -569 c17 -4 55 -11 85 -17 394 -75 756 -334 973
-696 85 -140 146 -309 181 -498 17 -93 25 -339 12 -400 -2 -11 -7 -45 -11 -75
-10 -79 -60 -251 -102 -350 -36 -83 -123 -235 -173 -300 -250 -326 -634 -542
-1024 -577 -143 -12 -300 -6 -416 17 -30 6 -65 13 -76 16 -35 7 -156 45 -194
60 -292 122 -514 303 -687 560 -43 62 -121 213 -142 274 -7 19 -17 44 -22 55
-58 135 -93 449 -70 630 15 122 21 157 27 175 3 8 8 24 10 36 10 53 59 186 99
269 136 282 345 502 626 658 135 75 316 135 484 161 89 13 357 15 420 2z"/>
<path d="M3055 3525 c-195 -44 -360 -210 -400 -402 -26 -124 -1 -272 63 -383
65 -111 213 -216 342 -241 333 -65 636 186 629 520 -5 228 -139 413 -351 488
-84 29 -203 37 -283 18z"/>
</g>
</svg>
