<svg width="3821" height="1517" viewBox="0 0 3821 1517" xmlns="http://www.w3.org/2000/svg"><title>Group 4</title><g id="Page-1" fill="none" fill-rule="evenodd"><g id="Group-4" transform="translate(-1)"><g id="podlove-subscribe-icon" transform="translate(1400)"><g id="podlove_logo"><g id="sub_signet" transform="translate(12.658)"><rect id="Rectangle-3" fill="#FFF" x=".342" y="14" width="606" height="986" rx="100"/><path d="M511.114 0c-18.502 0-36.126 3.74-52.179 10.488h15.074c72.952 0 132.083 59.138 132.083 132.083v737.656c0 72.939-59.131 132.083-132.083 132.083h-15.08c16.053 6.748 33.677 10.482 52.185 10.482H873.14c74.478 0 134.843-60.372 134.843-134.844V134.85C1007.983 60.378 947.612 0 873.14 0H511.114z" id="Shape" fill="#61B66D"/><path d="M935.159 580.958v-61.701h-6.38v6.36h6.36v-83.79c0-29.488-23.9-53.388-53.387-53.388h-141.09c-29.489 0-53.394 23.901-53.394 53.388v97.954h6.38v-6.36h-6.361v47.537c0 29.493 23.899 53.394 53.388 53.394h141.09c29.487 0 53.394-23.906 53.394-53.394zm-28.405-139.13v97.953h6.373v-6.36h-6.36v47.537c0 13.806-11.19 24.996-24.996 24.996H740.68c-13.802 0-24.996-11.192-24.996-24.996v-61.701h-6.373v6.36h6.36v-83.79c0-13.8 11.191-24.989 24.997-24.989h141.089c13.801 0 24.996 11.191 24.996 24.99zm-100.42 113.23l67.691-67.717c5.365-5.364 5.365-14.072 0-19.437-5.356-5.368-14.057-5.368-19.41.01l-62.48 62.499 8.994-.001-29.435-29.43c-5.388-5.364-14.09-5.364-19.441.011-5.354 5.377-5.354 14.053.01 19.416l34.612 34.618 1.863 1.864h2.634c-5.276-2.048-5.276-2.048-6.075-4.517-.268-1.277-.268-1.277-.266-1.812v2.639l1.868 1.864c5.364 5.352 14.065 5.352 19.428 0l.006-.006z" id="Shape" fill="#FFF"/></g><g id="podlove_signet" fill="#181716"><path d="M497.257 57.242c42.792 0 77.601 34.816 77.601 77.608v753.104c0 42.792-34.816 77.602-77.601 77.602H135.232c-42.786 0-77.595-34.81-77.595-77.602V134.85c0-42.792 34.81-77.608 77.595-77.608h362.025zm0-57.242H135.232C60.772 0 .394 60.378.394 134.85v753.104c0 74.466 60.378 134.844 134.838 134.844H497.25c74.478 0 134.843-60.372 134.843-134.844V134.85C632.101 60.378 571.735 0 497.257 0z" id="Shape"/><path d="M315.716 575.043c81.043 0 146.725 65.682 146.725 146.718 0 81.03-65.682 146.725-146.725 146.725-81.016 0-146.711-65.695-146.711-146.725-.007-81.036 65.688-146.718 146.711-146.718zm0-57.242c-112.462 0-203.954 91.498-203.954 203.96 0 112.468 91.492 203.967 203.954 203.967 112.469 0 203.967-91.499 203.967-203.967 0-112.462-91.498-203.96-203.967-203.96zM334.366 423.753L184.468 273.74c-11.975-12.206-18.879-28.741-18.879-46.431 0-36.77 29.81-66.58 66.58-66.58 23.812 0 45.398 12.573 57.33 32.703l24.626 41.543 24.618-41.547c11.923-20.122 33.517-32.698 57.322-32.698 36.781 0 66.592 29.807 66.592 66.579 0 17.694-6.907 34.243-19.066 46.64L293.876 423.751l40.49.002zm-40.492 40.461l20.244 20.26 20.246-20.258L484.27 314.222c22.737-23.181 35.63-54.071 35.63-86.913 0-68.388-55.44-123.821-123.834-123.821-44.232 0-84.44 23.416-106.568 60.76l49.244-.005c-22.137-37.344-62.333-60.755-106.573-60.755-68.383 0-123.821 55.436-123.821 123.82 0 32.843 12.894 63.722 35.444 86.707l150.083 150.199z" id="Shape"/><path d="M315.723 669.244c29.009 0 52.535 23.52 52.535 52.517 0 29.015-23.526 52.523-52.535 52.523-29.003 0-52.517-23.508-52.517-52.523 0-28.996 23.514-52.517 52.517-52.517z" id="Shape"/></g></g></g><g id="Group-3" transform="translate(0 1152)" fill="#000"><g id="Group-2"><g id="podlove" transform="translate(1920.405)"><g id="Page-1"><g id="podlove_text"><g id="Page-1"><g id="podlove_text"><g id="Page-1"><g id="Group-2"><g id="podlove_logo"><g id="Group"><path d="M215.526 285.677H47.203v79.303H0V76.28h215.526c48.09 0 65.905 26.73 65.905 65.047v79.307c0 38.312-17.816 65.042-65.905 65.042zm18.701-152.368c0-11.587-4.453-16.042-14.694-16.042H61.893c-10.241 0-14.694 4.455-14.694 16.042v95.34c0 11.588 4.453 16.043 14.694 16.043h157.636c10.24 0 14.694-4.455 14.694-16.043v-95.34h.004zM534.337 285.677H370.463c-47.203 0-60.562-19.602-60.562-63.265v-82.866c0-43.663 13.359-63.265 60.562-63.265h163.874c47.203 0 60.562 19.602 60.562 63.265v82.866c0 43.663-13.359 63.265-60.562 63.265zM547.695 134.2c0-12.028-3.562-16.933-16.03-16.933H372.248c-11.577 0-15.139 4.905-15.139 16.933v93.558c0 12.029 3.562 16.934 15.14 16.934h159.416c12.468 0 16.03-4.905 16.03-16.934V134.2zM689.274 285.677c-49.875 0-65.905-24.952-65.905-65.047v-79.302c0-41.877 16.475-65.047 65.905-65.047h168.322V.543H904.8v285.134H689.274zM857.601 133.31c0-11.587-4.453-16.042-14.694-16.042H685.27c-10.241 0-14.694 4.455-14.694 16.042v95.34c0 11.588 4.453 16.043 14.694 16.043h157.636c10.241 0 14.694-4.455 14.694-16.043v-95.34zM939.959 285.677V.543h47.203v285.134h-47.203zM1245.875 285.677H1082c-47.204 0-60.562-19.602-60.562-63.265v-82.866c0-43.663 13.358-63.265 60.562-63.265h163.874c47.203 0 60.561 19.602 60.561 63.265v82.866c-.004 43.663-13.362 63.265-60.561 63.265zm13.358-151.477c0-12.028-3.562-16.933-16.034-16.933h-159.417c-11.582 0-15.14 4.905-15.14 16.933v93.558c0 12.029 3.563 16.934 15.14 16.934h159.417c12.472 0 16.034-4.905 16.034-16.934V134.2zM1490.753 285.677H1435.534L1307.287 76.281h53.882l101.972 166.624 101.972-166.624h53.883l-128.243 209.396zM1667.063 203.702v19.601c0 15.147 7.129 21.389 24.045 21.389h169.213v40.985h-179.9c-47.203 0-60.561-19.156-60.561-63.265v-82.866c0-43.663 10.686-63.265 60.561-63.265h159.862c49.876 0 60.562 17.374 60.562 63.265v64.151h-233.782v.005zm189.255-69.502c0-12.028-3.567-16.933-15.14-16.933h-158.971c-11.582 0-15.14 4.905-15.14 16.933v28.512h189.255V134.2h-.004z" id="Shape"/></g></g></g></g></g></g></g></g></g><path d="M163.828 196.748c0 27.037-6.355 48.861-19.065 65.473-12.71 16.612-30.402 24.918-53.074 24.918-10.535 0-19.867-1.89-27.997-5.671-8.13-3.78-15.115-9.337-20.955-16.67v90.22H.999V97.592H36.21l4.122 23.371c5.955-8.707 13.14-15.351 21.556-19.934 8.417-4.582 18.178-6.874 29.286-6.874 22.901 0 40.735 9.08 53.503 27.238s19.151 42.073 19.151 71.746v3.609zm-41.566-3.61c0-19.017-3.578-34.569-10.735-46.656-7.157-12.086-17.834-18.13-32.033-18.13-8.703 0-16.088 1.862-22.157 5.586-6.07 3.723-10.936 8.907-14.6 15.552v84.033c3.664 6.53 8.53 11.542 14.6 15.036 6.069 3.494 13.569 5.241 22.5 5.241 14.2 0 24.82-5.24 31.862-15.723 7.042-10.483 10.563-24.26 10.563-41.33v-3.608zm71.364-4.295c0-27.725 7.586-50.437 22.758-68.137 15.172-17.7 35.926-26.55 62.263-26.55 26.68 0 47.606 8.85 62.779 26.55 15.172 17.7 22.758 40.412 22.758 68.137v3.608c0 27.954-7.586 50.724-22.758 68.31-15.173 17.585-35.984 26.378-62.435 26.378-26.566 0-47.435-8.822-62.607-26.465-15.172-17.643-22.758-40.383-22.758-68.223v-3.608zm41.737 3.608c0 18.216 3.55 32.995 10.65 44.337 7.099 11.342 18.092 17.012 32.978 17.012 14.542 0 25.449-5.699 32.72-17.098 7.271-11.4 10.907-26.15 10.907-44.25v-3.61c0-17.757-3.636-32.392-10.907-43.906-7.271-11.514-18.292-17.27-33.064-17.27-14.542 0-25.392 5.756-32.549 17.27-7.156 11.514-10.735 26.15-10.735 43.907v3.608zm330.035 35.916h1.03l27.14-130.775h41.737L584.464 283.53h-34.18L510.95 160.488h-1.03L471.102 283.53h-34.18L386.08 97.592h41.738l27.825 129.057h1.03l38.819-129.057h30.401l39.505 130.775zm179.058 58.772c-27.139 0-48.351-8.564-63.638-25.691-15.287-17.128-22.93-39.324-22.93-66.59v-6.875c0-27.266 7.643-49.749 22.93-67.45 15.287-17.7 35.01-26.492 59.172-26.378 24.963 0 43.856 7.705 56.68 23.114 12.826 15.409 19.238 36.001 19.238 61.778v22.512H701l-.343.86c.458 15.237 4.465 27.61 12.023 37.118 7.557 9.51 18.95 14.263 34.18 14.263 11.337 0 21.155-1.374 29.457-4.124a84.078 84.078 0 0 0 23.102-11.857l13.57 27.323c-7.1 6.187-16.49 11.4-28.17 15.638-11.68 4.24-25.134 6.359-40.363 6.359zm-4.466-159.474c-10.878 0-19.58 3.924-26.108 11.772-6.527 7.847-10.592 18.072-12.195 30.674l.344.86h72.654v-3.265c0-11.915-2.776-21.567-8.33-28.957-5.554-7.389-14.342-11.084-26.365-11.084zm203.447 7.562l-17.863-.688c-8.13 0-14.915 1.719-20.354 5.156-5.439 3.437-9.647 8.305-12.624 14.606V283.53h-41.738V97.592h38.131l2.748 26.98c4.695-9.509 10.735-16.955 18.12-22.34 7.387-5.384 15.889-8.077 25.507-8.077 2.52 0 4.867.2 7.043.602 2.175.4 4.18.888 6.011 1.46l-4.98 39.01zm107.605 151.912c-27.138 0-48.35-8.564-63.637-25.691-15.287-17.128-22.93-39.324-22.93-66.59v-6.875c0-27.266 7.643-49.749 22.93-67.45 15.286-17.7 35.01-26.492 59.171-26.378 24.963 0 43.856 7.705 56.681 23.114 12.825 15.409 19.237 36.001 19.237 61.778v22.512h-114.908l-.343.86c.458 15.237 4.466 27.61 12.023 37.118 7.558 9.51 18.951 14.263 34.18 14.263 11.337 0 21.156-1.374 29.458-4.124a84.078 84.078 0 0 0 23.101-11.857l13.57 27.323c-7.1 6.187-16.49 11.4-28.17 15.638-11.68 4.24-25.134 6.359-40.363 6.359zm-4.466-159.474c-10.878 0-19.58 3.924-26.107 11.772-6.527 7.847-10.592 18.072-12.195 30.674l.343.86h72.655v-3.265c0-11.915-2.777-21.567-8.33-28.957-5.554-7.389-14.343-11.084-26.366-11.084zm103.14 65.474c0-29.673 6.354-53.588 19.065-71.746 12.71-18.159 30.573-27.238 53.589-27.238 10.077 0 19.094 2.034 27.052 6.1 7.959 4.068 14.858 9.882 20.697 17.443V15.45h41.738v268.08h-33.837l-4.98-23.543c-5.955 8.821-13.169 15.552-21.642 20.192-8.474 4.64-18.264 6.96-29.372 6.96-22.787 0-40.535-8.306-53.245-24.918-12.71-16.612-19.066-38.436-19.066-65.473v-3.61zm41.737 3.609c0 17.184 3.292 30.875 9.876 41.07 6.584 10.197 17.033 15.295 31.347 15.295 8.817 0 16.288-1.89 22.414-5.67 6.127-3.781 11.136-9.166 15.03-16.154v-81.112c-3.894-6.874-8.932-12.23-15.115-16.067-6.184-3.838-13.512-5.757-21.986-5.757-14.199 0-24.676 5.986-31.432 17.958-6.756 11.972-10.134 27.58-10.134 46.828v3.609zm418.23 0c0 27.151-6.326 49.004-18.979 65.559-12.653 16.554-30.487 24.832-53.503 24.832-11.68 0-21.814-2.406-30.402-7.218-8.588-4.812-15.745-11.8-21.47-20.965l-4.981 24.574h-33.837V15.45h41.738v103.28c5.725-7.906 12.596-13.977 20.611-18.216 8.016-4.24 17.348-6.359 27.997-6.359 23.245 0 41.194 9.05 53.847 27.152 12.653 18.101 18.98 42.045 18.98 71.832v3.609zm-41.737-3.61c0-19.36-3.32-34.999-9.962-46.913-6.642-11.915-17.176-17.872-31.604-17.872-9.275 0-17.033 2.062-23.274 6.186-6.24 4.125-11.193 9.853-14.857 17.185v78.018c3.55 7.447 8.474 13.203 14.771 17.27 6.298 4.068 14.2 6.101 23.703 6.101 14.428 0 24.906-5.07 31.433-15.208 6.527-10.14 9.79-23.858 9.79-41.157v-3.61zm140.583 15.81l4.122 18.56h1.03l40.708-129.916h45.688l-76.948 214.12c-4.924 12.946-11.852 24.002-20.784 33.167-8.931 9.165-21.584 13.748-37.959 13.748-3.435 0-7.128-.344-11.078-1.031-3.95-.688-7.758-1.49-11.422-2.406l4.637-32.307c1.489.114 3.607.286 6.355.515 2.749.23 4.81.344 6.184.344 7.557 0 13.597-2.578 18.12-7.733 4.524-5.156 8.216-11.113 11.08-17.872l6.87-16.841-67.502-183.704h45.516l35.383 111.357z" id="powered-by"/></g></g></g></g></svg>