<svg xmlns="http://www.w3.org/2000/svg" version="1" width="617.765" height="95.358" id="svg2"><defs id="defs4"><clipPath id="clipPath2708"><path d="M130.758 42.474h12.391v70.941h-12.391V42.474z" id="path2710"/></clipPath></defs><g transform="translate(-4.77 -4.886)" id="layer1"><g id="g3197"><path d="M577.45 4.886v95.34h-31.783V4.886h31.783z" id="path2698" fill="#0071bc"/><path d="M622.535 4.886v95.34h-31.783V4.886h31.783z" id="path2700" fill="#f26522"/><path d="M532.145 4.886v95.358H4.769V4.886h527.376z" id="path2702" fill="#939598"/><g transform="matrix(0 9.14883 9.14883 0 -388.164 -1194.892)" id="g2704"><g clip-path="url(#clipPath2708)" id="g2706"><g transform="translate(139.219 82.962)" id="g2712"><path d="M0 0v1.138h-1.864c-.609 0-1.249.079-1.249.742 0 .158.016.259.048.381h-1.168v-.165c0-.655.368-.814.816-1.045v-.014c-.248-.007-.504-.021-.752-.029V-.029c.216.022.472.029.872.029H0" id="path2714" fill="#fff"/></g><path d="M135.052 94.032h4.167v-1.174h-4.167v1.174zm-2.162-.586c0-.36.292-.677.738-.669.428-.008.728.292.728.66 0 .377-.3.686-.728.677-.446 0-.738-.3-.738-.668" id="path2716" fill="#fff" fill-rule="evenodd"/><g transform="translate(134.98 96.234)" id="g2718"><path d="M0 0c0-.848.694-1.646 2.168-1.646 1.303 0 2.135.566 2.135 1.646 0 .6-.386 1.611-2.169 1.611C.883 1.611 0 1.054 0 0m3.446-.057c0-.334-.498-.497-1.303-.497-.617 0-1.286.129-1.286.489 0 .317.669.454 1.286.454.66 0 1.303-.137 1.303-.446" id="path2720" fill="#fff"/></g><g transform="translate(136.81 88.386)" id="g2722"><path d="M0 0c-.797 0-1.826-.137-1.826-1.534 0-.6.172-1.088.309-1.354l.746.188a1.7 1.7 0 0 0-.223.875c0 .394.231.634.505.634h.155c.008-.986.437-1.98 1.543-1.98.728 0 1.268.454 1.268 1.08 0 .351-.137.797-.48 1.054l.411.069V.051A7.724 7.724 0 0 0 1.491 0H0zm1.14-1.148a.492.492 0 0 0 .514-.497c0-.172-.163-.438-.591-.438-.506 0-.695.429-.703.935h.78" id="path2724" fill="#fff"/></g><g transform="translate(133.433 92.151)" id="g2726"><path d="M0 0v-1.165h1.954c-.223-.095-.403-.42-.403-.78 0-.703.729-1.312 2.16-1.312 1.063 0 2.143.335 2.143 1.269 0 .334-.214.788-.54.96l.471.068v.994A33.276 33.276 0 0 0 4.483 0H0zm4.345-1.165a.688.688 0 0 0 .292-.052c.197-.069.265-.206.265-.351 0-.257-.308-.532-1.156-.532-.686 0-1.209.18-1.209.532 0 .222.197.334.42.385.086.018.171.018.257.018h1.131" id="path2728" fill="#fff"/></g><g transform="translate(139.217 81.237)" id="g2730"><path d="M0 0l-.472-.068c.326-.172.541-.626.541-.961 0-.934-1.081-1.269-2.144-1.269-1.432 0-2.161.609-2.161 1.312 0 .36.181.686.403.78h-1.92V.96h4.45C-.875.96-.429.977 0 .995V0zm0-4.029h-2.589c-.343 0-.661-.112-.661-.421 0-.171.095-.308.292-.402.094-.043.249-.078.446-.078H0v-1.174h-2.864c-.428 0-.883-.017-1.303-.035v.995l.489.069c-.36.248-.558.72-.558 1.131 0 .841.721 1.089 1.595 1.089H0v-1.174zm0-3.756l-.412-.068c.343-.258.481-.703.481-1.055 0-.626-.541-1.08-1.27-1.08-1.105 0-1.534.994-1.543 1.98h-.154c-.274 0-.506-.24-.506-.634 0-.343.077-.617.223-.874l-.746-.189a3.055 3.055 0 0 0-.309 1.354c0 1.398 1.029 1.535 1.827 1.535h1.492c.325 0 .634.017.917.052v-1.021zm0-3.901h-5.753v1.175H0v-1.175zm0-1.886h-2.478c-.42 0-.772-.094-.772-.428 0-.163.069-.326.343-.421.061-.017.24-.051.352-.051H0v-1.175h-5.753v1.175h2.032a1.362 1.362 0 0 0-.515 1.037c0 .832.755 1.038 1.801 1.038H0v-1.175zm-3.232-2.623a1.218 1.218 0 0 1-.043-.335c0-.531.429-.891 1.192-.891.737 0 1.191.334 1.191.866 0 .119-.017.231-.043.325l.901.078c.034-.129.085-.369.085-.644 0-1.088-.728-1.783-2.083-1.783-1.329 0-2.186.798-2.186 1.972 0 .223.042.42.077.54l.909-.128zm3.283-4.167c0-.326-.102-.737-.231-.943l-.832.188c.086.198.189.498.189.755 0 .291-.12.446-.343.446-.189 0-.309-.138-.523-.506-.386-.712-.841-.823-1.183-.823-.763 0-1.364.531-1.364 1.423 0 .326.078.591.163.814l.841-.18a1.087 1.087 0 0 1-.12-.54c0-.3.163-.42.343-.42.154 0 .265.086.505.506.361.652.806.814 1.226.814.866 0 1.329-.617 1.329-1.534m-3.429-1.972h1.801c.548 0 .668.249.668.497 0 .086-.008.155-.017.232h.917c.035-.172.06-.412.06-.695 0-.334-.068-.626-.265-.831-.215-.249-.558-.378-1.235-.378h-1.929v-.488h-.789v.488h-.789l-.351 1.175h1.14v.831h.789v-.831zM0-25.369l-.454-.069c.325-.24.523-.686.523-1.089 0-.788-.6-1.088-1.741-1.088h-2.495v1.174h2.358c.575 0 .9.163.9.437 0 .129-.06.258-.214.335a.93.93 0 0 1-.395.086h-2.649v1.174h2.864c.428 0 .883.017 1.303.034v-.994zm-1.603-2.855l-.017-2.024c.531.018.805.369.805.926 0 .301-.06.566-.12.789l.806.137c.103-.3.172-.746.172-1.166 0-1.157-.72-1.809-2.032-1.809-1.423 0-2.255.763-2.255 1.724 0 .883.634 1.457 2.023 1.457.3 0 .489-.008.618-.034m1.123-4.364c.351-.395.531-.952.531-1.792 0-.36-.034-.703-.06-.934h-5.676c-.06.282-.111.72-.111 1.174 0 .755.18 1.278.549 1.663.463.498 1.243.712 2.323.712 1.106 0 1.972-.274 2.444-.823M-2.572-.206c-.086 0-.172 0-.257-.017-.223-.051-.421-.162-.421-.386 0-.351.523-.531 1.209-.531.849 0 1.158.274 1.158.531 0 .146-.069.283-.266.352a.687.687 0 0 1-.291.051h-1.132zm.523-7.759c.008-.506.197-.934.703-.934.429 0 .592.266.592.437a.493.493 0 0 1-.515.497h-.78zM-3.43-29.716c0-.369.549-.532 1.038-.532v1.021c-.54 0-1.038-.112-1.038-.489m-1.44-4.167c0-.077 0-.128.009-.265h3.944c.017.128.017.188.017.257 0 .488-.549.908-2.092.908-1.158 0-1.878-.291-1.878-.9" id="path2732" fill="#fff"/></g></g></g></g></g></svg>