<svg width="300" viewBox="0 0 961.07812 506.69271"><path d="M93.485 249.57c5.52-24.825 9.937-37.237 16.194-47.581 11.778-20.274 22.083-28.135 44.166-33.927 2.944-.828 5.52-1.241 8.097-2.069l4.785-.827 2.944-.414 5.89-27.72-54.473-.415s2.945-14.067 6.257-28.549c.736-2.896 1.472-5.378 2.576-7.86 10.674-25.24 18.035-32.687 22.451-33.928 2.945-.414 6.257-1.655 24.292-8.275 1.105-.414 2.577-.827 2.577-.827l6.993-2.897 5.152-22.342c-19.138-3.723-38.277-2.068-61.096 4.965-26.132 7.862-42.326 18.62-53 32.272-9.938 12.412-16.93 26.48-19.876 37.237l-8.097 29.79-36.069.828-6.625 28.962h25.028c10.305 0 10.674.414 8.465 10.757a94.894 94.894 0 0 0-1.104 7.034L.007 360.884h68.826s12.146-55.442 24.66-111.3z"/><path d="M247.25 472.99c39.75-8.689 61.465-21.929 84.284-53.787 8.833-12.826 15.826-26.066 22.819-46.34a65.191 65.191 0 0 1 2.576-7.034l5.153-15.722 62.937-182.88h-66.25l-2.944 8.275s-1.472 3.31-2.577 6.62c-4.416 11.171-9.201 22.756-15.09 35.582-14.354 31.031-23.187 46.754-29.444 55.856-16.194 24.411-21.347 29.79-29.444 35.17-11.042 7.033-22.819.827-26.132-14.482-.736-4.137-1.104-8.275-1.104-11.999-.368-8.275-.368-16.964-.368-16.964v-5.792c.368-18.205 1.104-33.1 3.68-59.166.737-7.448 1.84-14.895 1.84-14.895l1.105-8.689.368-4.137.736-5.38H188.73l-.736 5.38-.368 4.55s-1.472 12.413-2.576 24.826c-2.945 34.34-3.68 50.064-3.313 75.716 0 19.446.736 30.617 2.208 42.202 5.153 42.202 31.653 59.58 66.986 40.96 10.305-5.792 18.403-11.584 34.965-28.134 4.785-4.551 9.57-9.516 9.57-9.516l5.889-6.207-5.153 15.31-1.84 6.206s-5.153 15.722-9.938 31.03c-1.84 4.966-4.048 9.93-6.257 14.482-12.146 26.48-21.347 40.134-32.757 52.546-19.875 21.515-47.479 14.895-57.416-11.585-1.472-4.552-2.576-9.517-3.312-14.067-.736-5.793-1.104-9.93-1.104-13.654l-18.771-.414-17.298 78.198h71.402c13.25 0 19.875-.414 28.34-2.069zM511.92 472.99c39.75-8.689 61.465-21.929 84.284-53.787 8.833-12.826 15.826-26.066 22.819-46.34a65.191 65.191 0 0 1 2.576-7.034l5.153-15.722 62.937-182.88h-66.25l-2.944 8.275s-1.472 3.31-2.577 6.62c-4.416 11.171-9.201 22.756-15.09 35.582-14.354 31.031-23.187 46.754-29.444 55.856-16.194 24.411-21.347 29.79-29.444 35.17-11.042 7.033-22.819.827-26.132-14.482-.736-4.137-1.104-8.275-1.104-11.999-.368-8.275-.368-16.964-.368-16.964v-5.792c.368-18.205 1.104-33.1 3.68-59.166.737-7.448 1.84-14.895 1.84-14.895l1.105-8.689.368-4.137.736-5.38H453.4l-.736 5.38-.368 4.55s-1.472 12.413-2.576 24.826c-2.945 34.34-3.68 50.064-3.313 75.716 0 19.446.736 30.617 2.208 42.202 5.153 42.202 31.653 59.58 66.986 40.96 10.305-5.792 18.403-11.584 34.965-28.134 4.785-4.551 9.57-9.516 9.57-9.516l5.889-6.207-5.153 15.31-1.84 6.206s-5.153 15.722-9.938 31.03c-1.84 4.966-4.048 9.93-6.257 14.482-12.146 26.48-21.347 40.134-32.757 52.546-19.875 21.515-47.479 14.895-57.416-11.585-1.472-4.552-2.576-9.517-3.312-14.067-.736-5.793-1.104-9.93-1.104-13.654l-18.771-.414-17.298 78.198h71.402c13.25 0 19.875-.414 28.34-2.069z" fill="green"/><path d="M754.23 168.48c-3.68 2.069-7.361 4.551-11.042 6.62-62.937 40.961-80.972 110.88-58.152 151.02 19.139 33.927 48.583 40.961 90.173 16.55 8.833-4.965 16.194-10.344 35.333-27.307 17.298-14.895 20.243-17.791 27.972-27.721l3.68 13.24.737 2.482 4.784 19.447s.368 2.068 1.105 3.723c11.042 36.41 45.27 47.581 97.534 13.24 2.944-1.655 5.52-3.31 8.097-5.378 1.472-1.242 3.312-2.483 3.312-2.483l3.313-2.482-1.84-22.342-3.313 1.655-4.417 1.655c-4.784 2.068-9.937 3.31-16.194 4.137-18.403 2.896-29.076-11.171-23.923-36.41 1.104-6.62 2.577-13.24 2.577-13.24l1.84-7.448 43.062-194.46h-68.826l-27.972 124.95-98.638-23.584-4.785 2.07s-2.208 1.24-4.416 2.068zm42.694 51.305c8.833-4.551 16.562-7.447 22.819-9.102 18.035-4.552 22.083-4.965 27.604-4.552 4.049.414 6.625 4.552 4.417 13.24-3.68 15.722-5.153 19.032-11.778 33.1-15.458 31.86-33.125 49.65-52.264 55.856-25.764 8.275-39.014-1.655-40.118-24.825-.737-21.515 13.618-45.512 49.319-63.717z"/><g fill="red"><path d="M734.677 433.265q0-9.968-3.937-15.614-3.89-5.696-10.734-5.696-6.843 0-10.78 5.696-3.89 5.646-3.89 15.614t3.89 15.664q3.937 5.646 10.78 5.646t10.734-5.646q3.937-5.696 3.937-15.664zm-29.342-19.198q2.718-4.91 6.843-7.267 4.172-2.406 9.937-2.406 9.562 0 15.515 7.954 6 7.955 6 20.917 0 12.962-6 20.916-5.953 7.955-15.515 7.955-5.765 0-9.937-2.357-4.125-2.406-6.843-7.316v8.249h-8.671V384.31h8.67v29.755zM802.817 430.969v4.42h-39.654q.563 9.328 5.344 14.239 4.827 4.86 13.405 4.86 4.968 0 9.609-1.276 4.687-1.277 9.28-3.83v8.544q-4.64 2.062-9.515 3.142-4.874 1.08-9.89 1.08-12.561 0-19.92-7.66-7.312-7.66-7.312-20.72 0-13.503 6.937-21.407 6.984-7.955 18.796-7.955 10.593 0 16.733 7.169 6.187 7.12 6.187 19.395zm-8.625-2.651q-.093-7.415-3.984-11.834-3.843-4.419-10.218-4.419-7.218 0-11.577 4.272-4.312 4.272-4.969 12.03l30.749-.05zM825.327 390.108v15.614h17.766v7.022h-17.766v29.853q0 6.727 1.735 8.642 1.78 1.915 7.171 1.915h8.859v7.561h-8.859q-9.984 0-13.78-3.879-3.797-3.928-3.797-14.24v-29.852h-6.328v-7.022h6.328v-15.614h8.671zM878.332 433.08q-10.452 0-14.483 2.505t-4.031 8.544q0 4.812 3 7.66 3.046 2.798 8.249 2.798 7.171 0 11.483-5.303 4.36-5.352 4.36-14.19v-2.013h-8.578zm17.202-3.731v31.376h-8.624v-8.347q-2.953 5.008-7.36 7.414-4.405 2.357-10.78 2.357-8.062 0-12.843-4.714-4.734-4.762-4.734-12.717 0-9.28 5.906-13.994 5.953-4.714 17.717-4.714h12.093v-.883q0-6.236-3.937-9.624-3.89-3.438-10.968-3.438-4.5 0-8.765 1.13t-8.203 3.388v-8.347q4.734-1.915 9.187-2.848 4.453-.982 8.672-.982 11.39 0 17.015 6.186 5.624 6.187 5.624 18.757zM918.97 448.249h9.515v12.471h-9.516V448.25zm0-60.838h9.515v32.161l-.938 17.53h-7.593l-.985-17.53v-32.16z"/></g></svg>