<?xml version="1.0" encoding="UTF-8" standalone="no"?>
<!-- Created with Inkscape (http://www.inkscape.org/) -->
<svg
   xmlns:svg="http://www.w3.org/2000/svg"
   xmlns="http://www.w3.org/2000/svg"
   version="1.0"
   width="617.7655"
   height="95.358246"
   id="svg2">
  <defs
     id="defs4">
    <clipPath
       id="clipPath2708">
      <path
         d="M 130.758,42.474 L 143.149,42.474 L 143.149,113.415 L 130.758,113.415 L 130.758,42.474 z"
         id="path2710" />
    </clipPath>
  </defs>
  <g
     transform="translate(-4.76947,-4.8856876)"
     id="layer1">
    <g
       id="g3197">
      <path
         d="M 577.44957,4.8856876 L 577.44957,100.22564 L 545.66654,100.22564 L 545.66654,4.8856876 L 577.44957,4.8856876 z"
         id="path2698"
         style="fill:#0071bc;fill-opacity:1;fill-rule:nonzero;stroke:none" />
      <path
         d="M 622.535,4.8856876 L 622.535,100.22564 L 590.75197,100.22564 L 590.75197,4.8856876 L 622.535,4.8856876 z"
         id="path2700"
         style="fill:#f26522;fill-opacity:1;fill-rule:nonzero;stroke:none" />
      <path
         d="M 532.14457,4.8856876 L 532.14457,100.24393 L 4.76947,100.24393 L 4.76947,4.8856876 L 532.14457,4.8856876 z"
         id="path2702"
         style="fill:#939598;fill-opacity:1;fill-rule:nonzero;stroke:none" />
      <g
         transform="matrix(0,9.148829,9.148829,0,-388.16359,-1194.8917)"
         id="g2704">
        <g
           clip-path="url(#clipPath2708)"
           id="g2706">
          <g
             transform="translate(139.2185,82.9615)"
             id="g2712">
            <path
               d="M 0,0 L 0,1.138 L -1.864,1.138 C -2.473,1.138 -3.113,1.217 -3.113,1.88 C -3.113,2.038 -3.097,2.139 -3.065,2.261 L -4.233,2.261 L -4.233,2.096 C -4.233,1.441 -3.865,1.282 -3.417,1.051 L -3.417,1.037 C -3.665,1.03 -3.921,1.016 -4.169,1.008 L -4.169,-0.029 C -3.953,-0.007 -3.697,0 -3.297,0 L 0,0"
               id="path2714"
               style="fill:#ffffff;fill-opacity:1;fill-rule:nonzero;stroke:none" />
          </g>
          <path
             d="M 135.052,94.032 L 139.219,94.032 L 139.219,92.858 L 135.052,92.858 L 135.052,94.032 z M 132.89,93.446 C 132.89,93.086 133.182,92.769 133.628,92.777 C 134.056,92.769 134.356,93.069 134.356,93.437 C 134.356,93.814 134.056,94.123 133.628,94.114 C 133.182,94.114 132.89,93.814 132.89,93.446"
             id="path2716"
             style="fill:#ffffff;fill-opacity:1;fill-rule:evenodd;stroke:none" />
          <g
             transform="translate(134.9793,96.2341)"
             id="g2718">
            <path
               d="M 0,0 C 0,-0.848 0.694,-1.646 2.168,-1.646 C 3.471,-1.646 4.303,-1.08 4.303,0 C 4.303,0.6 3.917,1.611 2.134,1.611 C 0.883,1.611 0,1.054 0,0 M 3.446,-0.057 C 3.446,-0.391 2.948,-0.554 2.143,-0.554 C 1.526,-0.554 0.857,-0.425 0.857,-0.065 C 0.857,0.252 1.526,0.389 2.143,0.389 C 2.803,0.389 3.446,0.252 3.446,-0.057"
               id="path2720"
               style="fill:#ffffff;fill-opacity:1;fill-rule:nonzero;stroke:none" />
          </g>
          <g
             transform="translate(136.8107,88.3862)"
             id="g2722">
            <path
               d="M 0,0 C -0.797,0 -1.826,-0.137 -1.826,-1.534 C -1.826,-2.134 -1.654,-2.622 -1.517,-2.888 L -0.771,-2.7 C -0.917,-2.442 -0.994,-2.168 -0.994,-1.825 C -0.994,-1.431 -0.763,-1.191 -0.489,-1.191 L -0.334,-1.191 C -0.326,-2.177 0.103,-3.171 1.209,-3.171 C 1.937,-3.171 2.477,-2.717 2.477,-2.091 C 2.477,-1.74 2.34,-1.294 1.997,-1.037 L 2.408,-0.968 L 2.408,0.051 C 2.126,0.017 1.817,0 1.491,0 L 0,0 z M 1.14,-1.148 C 1.217,-1.148 1.303,-1.157 1.346,-1.183 C 1.568,-1.268 1.654,-1.483 1.654,-1.645 C 1.654,-1.817 1.491,-2.083 1.063,-2.083 C 0.557,-2.083 0.368,-1.654 0.36,-1.148 L 1.14,-1.148"
               id="path2724"
               style="fill:#ffffff;fill-opacity:1;fill-rule:nonzero;stroke:none" />
          </g>
          <g
             transform="translate(133.4331,92.1515)"
             id="g2726">
            <path
               d="M 0,0 L 0,-1.165 L 1.954,-1.165 C 1.731,-1.26 1.551,-1.585 1.551,-1.945 C 1.551,-2.648 2.28,-3.257 3.711,-3.257 C 4.774,-3.257 5.854,-2.922 5.854,-1.988 C 5.854,-1.654 5.64,-1.2 5.314,-1.028 L 5.785,-0.96 L 5.785,0.034 C 5.357,0.017 4.911,0 4.483,0 L 0,0 z M 4.345,-1.165 C 4.474,-1.165 4.56,-1.183 4.637,-1.217 C 4.834,-1.286 4.902,-1.423 4.902,-1.568 C 4.902,-1.825 4.594,-2.1 3.746,-2.1 C 3.06,-2.1 2.537,-1.92 2.537,-1.568 C 2.537,-1.346 2.734,-1.234 2.957,-1.183 C 3.043,-1.165 3.128,-1.165 3.214,-1.165 L 4.345,-1.165"
               id="path2728"
               style="fill:#ffffff;fill-opacity:1;fill-rule:nonzero;stroke:none" />
          </g>
          <g
             transform="translate(139.2173,81.2371)"
             id="g2730">
            <path
               d="M 0,0 L -0.472,-0.068 C -0.146,-0.24 0.069,-0.694 0.069,-1.029 C 0.069,-1.963 -1.012,-2.298 -2.075,-2.298 C -3.507,-2.298 -4.236,-1.689 -4.236,-0.986 C -4.236,-0.626 -4.055,-0.3 -3.833,-0.206 L -5.753,-0.206 L -5.753,0.96 L -1.303,0.96 C -0.875,0.96 -0.429,0.977 0,0.995 L 0,0 z M 0,-4.029 L -2.589,-4.029 C -2.932,-4.029 -3.25,-4.141 -3.25,-4.45 C -3.25,-4.621 -3.155,-4.758 -2.958,-4.852 C -2.864,-4.895 -2.709,-4.93 -2.512,-4.93 L 0,-4.93 L 0,-6.104 L -2.864,-6.104 C -3.292,-6.104 -3.747,-6.121 -4.167,-6.139 L -4.167,-5.144 L -3.678,-5.075 C -4.038,-4.827 -4.236,-4.355 -4.236,-3.944 C -4.236,-3.103 -3.515,-2.855 -2.641,-2.855 L 0,-2.855 L 0,-4.029 z M 0,-7.785 L -0.412,-7.853 C -0.069,-8.111 0.069,-8.556 0.069,-8.908 C 0.069,-9.534 -0.472,-9.988 -1.201,-9.988 C -2.306,-9.988 -2.735,-8.994 -2.744,-8.008 L -2.898,-8.008 C -3.172,-8.008 -3.404,-8.248 -3.404,-8.642 C -3.404,-8.985 -3.327,-9.259 -3.181,-9.516 L -3.927,-9.705 C -4.064,-9.439 -4.236,-8.951 -4.236,-8.351 C -4.236,-6.953 -3.207,-6.816 -2.409,-6.816 L -0.917,-6.816 C -0.592,-6.816 -0.283,-6.799 0,-6.764 L 0,-7.785 z M 0,-11.686 L -5.753,-11.686 L -5.753,-10.511 L 0,-10.511 L 0,-11.686 z M 0,-13.572 L -2.478,-13.572 C -2.898,-13.572 -3.25,-13.666 -3.25,-14 C -3.25,-14.163 -3.181,-14.326 -2.907,-14.421 C -2.846,-14.438 -2.667,-14.472 -2.555,-14.472 L 0,-14.472 L 0,-15.647 L -5.753,-15.647 L -5.753,-14.472 L -3.721,-14.472 C -3.893,-14.344 -4.013,-14.163 -4.09,-14.018 C -4.167,-13.872 -4.236,-13.615 -4.236,-13.435 C -4.236,-12.603 -3.481,-12.397 -2.435,-12.397 L 0,-12.397 L 0,-13.572 z M -3.232,-16.195 C -3.258,-16.29 -3.275,-16.393 -3.275,-16.53 C -3.275,-17.061 -2.846,-17.421 -2.083,-17.421 C -1.346,-17.421 -0.892,-17.087 -0.892,-16.555 C -0.892,-16.436 -0.909,-16.324 -0.935,-16.23 L -0.034,-16.152 C 0,-16.281 0.051,-16.521 0.051,-16.796 C 0.051,-17.884 -0.677,-18.579 -2.032,-18.579 C -3.361,-18.579 -4.218,-17.781 -4.218,-16.607 C -4.218,-16.384 -4.176,-16.187 -4.141,-16.067 L -3.232,-16.195 z M 0.051,-20.362 C 0.051,-20.688 -0.051,-21.099 -0.18,-21.305 L -1.012,-21.117 C -0.926,-20.919 -0.823,-20.619 -0.823,-20.362 C -0.823,-20.071 -0.943,-19.916 -1.166,-19.916 C -1.355,-19.916 -1.475,-20.054 -1.689,-20.422 C -2.075,-21.134 -2.53,-21.245 -2.872,-21.245 C -3.635,-21.245 -4.236,-20.714 -4.236,-19.822 C -4.236,-19.496 -4.158,-19.231 -4.073,-19.008 L -3.232,-19.188 C -3.318,-19.342 -3.352,-19.522 -3.352,-19.728 C -3.352,-20.028 -3.189,-20.148 -3.009,-20.148 C -2.855,-20.148 -2.744,-20.062 -2.504,-19.642 C -2.143,-18.99 -1.698,-18.828 -1.278,-18.828 C -0.412,-18.828 0.051,-19.445 0.051,-20.362 M -3.378,-22.334 L -1.577,-22.334 C -1.029,-22.334 -0.909,-22.085 -0.909,-21.837 C -0.909,-21.751 -0.917,-21.682 -0.926,-21.605 L -0.009,-21.605 C 0.026,-21.777 0.051,-22.017 0.051,-22.3 C 0.051,-22.634 -0.017,-22.926 -0.214,-23.131 C -0.429,-23.38 -0.772,-23.509 -1.449,-23.509 L -3.378,-23.509 L -3.378,-23.997 L -4.167,-23.997 L -4.167,-23.509 L -4.956,-23.509 L -5.307,-22.334 L -4.167,-22.334 L -4.167,-21.503 L -3.378,-21.503 L -3.378,-22.334 z M 0,-25.369 L -0.454,-25.438 C -0.129,-25.678 0.069,-26.124 0.069,-26.527 C 0.069,-27.315 -0.531,-27.615 -1.672,-27.615 L -4.167,-27.615 L -4.167,-26.441 L -1.809,-26.441 C -1.234,-26.441 -0.909,-26.278 -0.909,-26.004 C -0.909,-25.875 -0.969,-25.746 -1.123,-25.669 C -1.209,-25.626 -1.355,-25.583 -1.518,-25.583 L -4.167,-25.583 L -4.167,-24.409 L -1.303,-24.409 C -0.875,-24.409 -0.42,-24.392 0,-24.375 L 0,-25.369 z M -1.603,-28.224 L -1.62,-30.248 C -1.089,-30.23 -0.815,-29.879 -0.815,-29.322 C -0.815,-29.021 -0.875,-28.756 -0.935,-28.533 L -0.129,-28.396 C -0.026,-28.696 0.043,-29.142 0.043,-29.562 C 0.043,-30.719 -0.677,-31.371 -1.989,-31.371 C -3.412,-31.371 -4.244,-30.608 -4.244,-29.647 C -4.244,-28.764 -3.61,-28.19 -2.221,-28.19 C -1.921,-28.19 -1.732,-28.198 -1.603,-28.224 M -0.48,-32.588 C -0.129,-32.983 0.051,-33.54 0.051,-34.38 C 0.051,-34.74 0.017,-35.083 -0.009,-35.314 L -5.685,-35.314 C -5.745,-35.032 -5.796,-34.594 -5.796,-34.14 C -5.796,-33.385 -5.616,-32.862 -5.247,-32.477 C -4.784,-31.979 -4.004,-31.765 -2.924,-31.765 C -1.818,-31.765 -0.952,-32.039 -0.48,-32.588 M -2.572,-0.206 C -2.658,-0.206 -2.744,-0.206 -2.829,-0.223 C -3.052,-0.274 -3.25,-0.385 -3.25,-0.609 C -3.25,-0.96 -2.727,-1.14 -2.041,-1.14 C -1.192,-1.14 -0.883,-0.866 -0.883,-0.609 C -0.883,-0.463 -0.952,-0.326 -1.149,-0.257 C -1.226,-0.223 -1.312,-0.206 -1.44,-0.206 L -2.572,-0.206 z M -2.049,-7.965 C -2.041,-8.471 -1.852,-8.899 -1.346,-8.899 C -0.917,-8.899 -0.754,-8.633 -0.754,-8.462 C -0.754,-8.299 -0.84,-8.085 -1.063,-7.999 C -1.106,-7.973 -1.192,-7.965 -1.269,-7.965 L -2.049,-7.965 z M -3.43,-29.716 C -3.43,-30.085 -2.881,-30.248 -2.392,-30.248 L -2.392,-29.227 C -2.932,-29.227 -3.43,-29.339 -3.43,-29.716 M -4.87,-33.883 C -4.87,-33.96 -4.87,-34.011 -4.861,-34.148 L -0.917,-34.148 C -0.9,-34.02 -0.9,-33.96 -0.9,-33.891 C -0.9,-33.403 -1.449,-32.983 -2.992,-32.983 C -4.15,-32.983 -4.87,-33.274 -4.87,-33.883"
               id="path2732"
               style="fill:#ffffff;fill-opacity:1;fill-rule:nonzero;stroke:none" />
          </g>
        </g>
      </g>
    </g>
  </g>
</svg>
