<svg width="300" viewBox="0 0 961.07812 506.69271"><path d="m93.485 249.57c5.5208-24.825 9.9374-37.237 16.194-47.581 11.778-20.274 22.083-28.135 44.166-33.927 2.9444-0.8275 5.5208-1.2412 8.0972-2.0687l4.7847-0.8275 2.9444-0.41374 5.8888-27.721-54.472-0.41375s2.9444-14.067 6.2569-28.549c0.73611-2.8962 1.4722-5.3787 2.5764-7.8612 10.674-25.239 18.035-32.686 22.451-33.927 2.9444-0.41375 6.2569-1.655 24.292-8.275 1.1042-0.41375 2.5764-0.8275 2.5764-0.8275l6.993-2.8962 5.1527-22.342c-19.139-3.7237-38.278-2.0687-61.097 4.965-26.132 7.8612-42.326 18.619-53 32.272-9.9374 12.412-16.93 26.48-19.875 37.237l-8.0972 29.79-36.069 0.8275-6.625 28.962h25.028c10.305 0 10.674 0.41375 8.4652 10.757-0.73611 3.7237-1.1042 7.0337-1.1042 7.0337l-39.005 177.1h68.826s12.146-55.442 24.66-111.3z"></path><path d="m247.25 472.99c39.75-8.6887 61.465-21.929 84.284-53.787 8.8333-12.826 15.826-26.066 22.819-46.34 1.1042-3.7237 2.5764-7.0337 2.5764-7.0337l5.1527-15.722 62.937-182.88h-66.25l-2.9444 8.275s-1.4722 3.31-2.5764 6.62c-4.4166 11.171-9.2013 22.756-15.09 35.582-14.354 31.031-23.187 46.754-29.444 55.856-16.194 24.411-21.347 29.79-29.444 35.169-11.042 7.0337-22.819 0.8275-26.132-14.481-0.73611-4.1375-1.1042-8.275-1.1042-11.999-0.36806-8.275-0.36806-16.964-0.36806-16.964v-5.7925c0.36806-18.205 1.1042-33.1 3.6805-59.166 0.73611-7.4475 1.8403-14.895 1.8403-14.895l1.1042-8.6887 0.36805-4.1375 0.73611-5.3787h-70.666l-0.73611 5.3787-0.36805 4.5512s-1.4722 12.412-2.5764 24.825c-2.9444 34.341-3.6805 50.064-3.3125 75.716 0 19.446 0.73611 30.617 2.2083 42.202 5.1527 42.202 31.653 59.58 66.986 40.961 10.305-5.7925 18.403-11.585 34.965-28.135 4.7847-4.5512 9.5694-9.5162 9.5694-9.5162l5.8888-6.2062-5.1527 15.309-1.8403 6.2062s-5.1527 15.722-9.9374 31.031c-1.8403 4.965-4.0486 9.93-6.2569 14.481-12.146 26.48-21.347 40.134-32.757 52.546-19.875 21.515-47.479 14.895-57.416-11.585-1.4722-4.5512-2.5764-9.5162-3.3125-14.067-0.7361-5.7925-1.1042-9.93-1.1042-13.654l-18.771-0.41375-17.298 78.198h71.402c13.25 0 19.875-0.41375 28.34-2.0687z" fill="#008000"></path><path d="m511.92 472.99c39.75-8.6887 61.465-21.929 84.284-53.787 8.8333-12.826 15.826-26.066 22.819-46.34 1.1042-3.7237 2.5764-7.0337 2.5764-7.0337l5.1527-15.722 62.937-182.88h-66.25l-2.9444 8.275s-1.4722 3.31-2.5764 6.62c-4.4166 11.171-9.2013 22.756-15.09 35.582-14.354 31.031-23.187 46.754-29.444 55.856-16.194 24.411-21.347 29.79-29.444 35.169-11.042 7.0337-22.819 0.8275-26.132-14.481-0.7361-4.1375-1.1042-8.275-1.1042-11.999-0.36805-8.275-0.36805-16.964-0.36805-16.964v-5.7925c0.36805-18.205 1.1042-33.1 3.6805-59.166 0.73611-7.4475 1.8403-14.895 1.8403-14.895l1.1042-8.6887 0.36806-4.1375 0.7361-5.3787h-70.666l-0.7361 5.3787-0.36806 4.5512s-1.4722 12.412-2.5764 24.825c-2.9444 34.341-3.6805 50.064-3.3125 75.716 0 19.446 0.7361 30.617 2.2083 42.202 5.1528 42.202 31.653 59.58 66.986 40.961 10.305-5.7925 18.403-11.585 34.965-28.135 4.7847-4.5512 9.5694-9.5162 9.5694-9.5162l5.8888-6.2062-5.1527 15.309-1.8403 6.2062s-5.1527 15.722-9.9374 31.031c-1.8403 4.965-4.0486 9.93-6.2569 14.481-12.146 26.48-21.347 40.134-32.757 52.546-19.875 21.515-47.479 14.895-57.416-11.585-1.4722-4.5512-2.5764-9.5162-3.3125-14.067-0.73611-5.7925-1.1042-9.93-1.1042-13.654l-18.771-0.41375-17.298 78.198h71.402c13.25 0 19.875-0.41375 28.34-2.0687z" fill="#008000"></path><path d="m754.23 168.48c-3.6805 2.0687-7.3611 4.5512-11.042 6.62-62.937 40.961-80.972 110.88-58.152 151.02 19.139 33.927 48.583 40.961 90.173 16.55 8.8333-4.965 16.194-10.344 35.333-27.307 17.298-14.895 20.243-17.791 27.972-27.721l3.6805 13.24 0.73611 2.4825 4.7847 19.446s0.36805 2.0687 1.1042 3.7237c11.042 36.41 45.271 47.581 97.534 13.24 2.9444-1.655 5.5208-3.31 8.0971-5.3787 1.4723-1.2412 3.3125-2.4825 3.3125-2.4825l3.3125-2.4825-1.8403-22.342-3.3124 1.655s-2.2084 0.8275-4.4167 1.655c-4.7847 2.0687-9.9374 3.31-16.194 4.1375-18.403 2.8962-29.076-11.171-23.923-36.41 1.1042-6.62 2.5764-13.24 2.5764-13.24l1.8403-7.4475 43.062-194.46h-68.826l-27.972 124.95-98.638-23.584-4.7847 2.0687s-2.2083 1.2412-4.4166 2.0687zm42.694 51.305c8.8333-4.5512 16.562-7.4475 22.819-9.1025 18.035-4.5512 22.083-4.965 27.604-4.5512 4.0486 0.41374 6.625 4.5512 4.4166 13.24-3.6805 15.722-5.1527 19.032-11.778 33.1-15.458 31.859-33.125 49.65-52.264 55.856-25.764 8.275-39.014-1.655-40.118-24.825-0.73611-21.515 13.618-45.512 49.319-63.717z"></path><g fill="#f00" transform="matrix(1.5999 0 0 1.676 -401.54 -298.51)"><path d="m710.18 436.62q0-5.9473-2.4609-9.3164-2.4316-3.3984-6.709-3.3984-4.2773 0-6.7383 3.3984-2.4316 3.3691-2.4316 9.3164t2.4316 9.3457q2.4609 3.3691 6.7383 3.3691 4.2773 0 6.709-3.3691 2.4609-3.3984 2.4609-9.3457zm-18.34-11.455q1.6992-2.9297 4.2773-4.3359 2.6074-1.4355 6.2109-1.4355 5.9766 0 9.6973 4.7461 3.75 4.7461 3.75 12.48 0 7.7344-3.75 12.48-3.7207 4.7461-9.6973 4.7461-3.6035 0-6.2109-1.4062-2.5781-1.4356-4.2773-4.3652v4.9219h-5.4199v-45.586h5.4199v17.754z"></path><path d="m752.77 435.25v2.6367h-24.785q0.35156 5.5664 3.3398 8.4961 3.0176 2.9004 8.3789 2.9004 3.1055 0 6.0059-0.76172 2.9297-0.76172 5.8008-2.2852v5.0977q-2.9004 1.2305-5.9473 1.875-3.0469 0.64453-6.1816 0.64453-7.8516 0-12.451-4.5703-4.5703-4.5703-4.5703-12.363 0-8.0566 4.3359-12.773 4.3652-4.7461 11.748-4.7461 6.6211 0 10.459 4.2773 3.8672 4.248 3.8672 11.572zm-5.3906-1.582q-0.0586-4.4238-2.4902-7.0605-2.4024-2.6367-6.3867-2.6367-4.5117 0-7.2363 2.5488-2.6953 2.5488-3.1055 7.1777l19.219-0.0293z"></path><path d="m766.84 410.87v9.3164h11.104v4.1895h-11.104v17.812q0 4.0137 1.084 5.1562 1.1133 1.1426 4.4824 1.1426h5.5371v4.5117h-5.5371q-6.2402 0-8.6133-2.3144-2.373-2.3438-2.373-8.4961v-17.812h-3.9551v-4.1895h3.9551v-9.3164h5.4199z"></path><path d="m799.97 436.51q-6.5332 0-9.0527 1.4941t-2.5195 5.0977q0 2.8711 1.875 4.5703 1.9043 1.6699 5.1562 1.6699 4.4824 0 7.1777-3.1641 2.7246-3.1934 2.7246-8.4668v-1.2012h-5.3613zm10.752-2.2266v18.721h-5.3906v-4.9805q-1.8457 2.9883-4.5996 4.4238-2.7539 1.4062-6.7383 1.4062-5.0391 0-8.0273-2.8125-2.959-2.8418-2.959-7.5879 0-5.5371 3.6914-8.3496 3.7207-2.8125 11.074-2.8125h7.5586v-0.52734q0-3.7207-2.4609-5.7422-2.4316-2.0508-6.8555-2.0508-2.8125 0-5.4785 0.67383t-5.127 2.0215v-4.9805q2.959-1.1426 5.7422-1.6992 2.7832-0.58593 5.4199-0.58593 7.1191 0 10.635 3.6914 3.5156 3.6914 3.5156 11.191z"></path><path d="m825.37 445.56h5.9473v7.4414h-5.9473v-7.4414zm0-36.299h5.9473v19.189l-0.58594 10.459h-4.7461l-0.61524-10.459v-19.189z"></path></g></svg>
