<?xml version="1.0" encoding="UTF-8" standalone="no"?>
<svg width="3821px" height="1517px" viewBox="0 0 3821 1517" version="1.1" xmlns="http://www.w3.org/2000/svg" xmlns:xlink="http://www.w3.org/1999/xlink">
    <!-- Generator: Sketch 3.8.2 (29753) - http://www.bohemiancoding.com/sketch -->
    <title>Group 4</title>
    <desc>Created with Sketch.</desc>
    <defs></defs>
    <g id="Page-1" stroke="none" stroke-width="1" fill="none" fill-rule="evenodd">
        <g id="Group-4" transform="translate(-1.000000, 0.000000)">
            <g id="podlove-subscribe-icon" transform="translate(1400.000000, 0.000000)">
                <g id="podlove_logo">
                    <g id="sub_signet" transform="translate(12.658385, 0.000000)">
                        <rect id="Rectangle-3" fill="#FFFFFF" x="0.341614907" y="14" width="606" height="986" rx="100"></rect>
                        <path d="M511.114435,0 C492.612472,0 474.988224,3.73982609 458.934957,10.4880497 L474.008745,10.4880497 C546.960795,10.4880497 606.092025,69.6256398 606.092025,142.571329 L606.092025,880.226584 C606.092025,953.165913 546.960795,1012.30986 474.008745,1012.30986 L458.928596,1012.30986 C474.981863,1019.05809 492.606112,1022.79155 511.114435,1022.79155 L873.139776,1022.79155 C947.618286,1022.79155 1007.9834,962.420075 1007.9834,887.947925 L1007.9834,134.849988 C1007.9834,60.3778385 947.611925,0 873.139776,0 L511.114435,0 Z" id="Shape" fill="#61B66D"></path>
                        <path d="M935.158559,580.957814 L935.158559,525.617292 L935.158559,519.257043 L928.798311,519.257043 L928.77923,519.257043 L928.77923,525.617292 L935.139478,525.617292 L935.139478,441.827379 C935.139478,412.339456 911.239476,388.439453 881.751553,388.439453 L740.662161,388.439453 C711.173291,388.439453 687.267876,412.340403 687.267876,441.827379 L687.267876,533.421317 L687.267876,539.781565 L693.628124,539.781565 L693.647205,539.781565 L693.647205,533.421317 L687.286957,533.421317 L687.286957,580.957814 C687.286957,610.45098 711.185843,634.352099 740.674882,634.352099 L881.764273,634.352099 C911.252196,634.352099 935.158559,610.445737 935.158559,580.957814 L935.158559,580.957814 Z M906.753689,441.827379 L906.753689,533.421317 L906.753689,539.781565 L913.113938,539.781565 L913.126658,539.781565 L913.126658,533.421317 L906.76641,533.421317 L906.76641,580.957814 C906.76641,594.764102 895.576922,605.95359 881.770634,605.95359 L740.681242,605.95359 C726.878918,605.95359 715.685466,594.761706 715.685466,580.957814 L715.685466,525.617292 L715.685466,519.257043 L709.325217,519.257043 L709.312497,519.257043 L709.312497,525.617292 L715.672745,525.617292 L715.672745,441.827379 C715.672745,428.026667 726.863017,416.837963 740.668522,416.837963 L881.757913,416.837963 C895.559453,416.837963 906.753689,428.029063 906.753689,441.827379 L906.753689,441.827379 Z M806.333251,555.058716 L874.025375,487.341151 C879.389554,481.976972 879.389554,473.268742 874.02453,467.903718 C868.668871,462.536205 859.968207,462.536205 854.614475,467.913679 L792.134287,530.412927 L801.129237,530.411754 L771.694007,500.982885 C766.305793,495.618336 757.603902,495.618336 752.252637,500.993331 C746.899201,506.370403 746.899201,515.045553 752.262576,520.408928 L786.874634,555.027347 L788.737579,556.890634 L791.372422,556.890634 C786.096303,554.842761 786.096303,554.842761 785.297105,552.37389 C785.028635,551.097435 785.028635,551.097435 785.031255,550.562186 L785.031255,553.200805 L786.899101,555.064528 C792.262983,560.416569 800.963551,560.416569 806.327434,555.064528 L806.333251,555.058716 Z" id="Shape" fill="#FFFFFF"></path>
                    </g>
                    <g id="podlove_signet" fill="#181716">
                        <path d="M497.256944,57.242236 C540.048696,57.242236 574.858335,92.058236 574.858335,134.849988 L574.858335,887.954286 C574.858335,930.746037 540.042335,965.555677 497.256944,965.555677 L135.231602,965.555677 C92.4462112,965.555677 57.6365714,930.746037 57.6365714,887.954286 L57.6365714,134.849988 C57.6365714,92.058236 92.4462112,57.242236 135.231602,57.242236 L497.256944,57.242236 L497.256944,57.242236 Z M497.256944,0 L135.231602,0 C60.7721739,0 0.394335404,60.3778385 0.394335404,134.849988 L0.394335404,887.954286 C0.394335404,962.420075 60.7721739,1022.79791 135.231602,1022.79791 L497.250584,1022.79791 C571.729093,1022.79791 632.094211,962.426435 632.094211,887.954286 L632.094211,134.849988 C632.100571,60.3778385 571.735453,0 497.256944,0 L497.256944,0 L497.256944,0 Z" id="Shape"></path>
                        <path d="M315.716373,575.042783 C396.758658,575.042783 462.440944,640.725068 462.440944,721.760994 C462.440944,802.790559 396.758658,868.485565 315.716373,868.485565 C234.699528,868.485565 169.004522,802.790559 169.004522,721.760994 C168.998161,640.725068 234.693168,575.042783 315.716373,575.042783 L315.716373,575.042783 Z M315.716373,517.800547 C203.25446,517.800547 111.762286,609.299081 111.762286,721.760994 C111.762286,834.229267 203.25446,925.727801 315.716373,925.727801 C428.184646,925.727801 519.68318,834.229267 519.68318,721.760994 C519.68318,609.299081 428.184646,517.800547 315.716373,517.800547 L315.716373,517.800547 L315.716373,517.800547 Z" id="Shape"></path>
                        <path d="M334.365861,423.753043 L184.467526,273.740224 C172.49335,261.533803 165.589068,244.998975 165.589068,227.308919 C165.589068,190.538245 195.39885,160.729839 232.168149,160.729839 C255.98085,160.729839 277.567052,173.302049 289.499355,193.431803 L314.124673,234.97463 L338.743001,193.427659 C350.665761,173.306288 372.260462,160.729839 396.065391,160.729839 C432.846035,160.729839 462.657193,190.536869 462.657193,227.308919 C462.657193,245.003128 455.749635,261.551633 443.590717,273.949232 L293.875756,423.751326 L334.365861,423.753043 L334.365861,423.753043 Z M293.87404,464.213963 L314.118233,484.473618 L334.364145,464.21568 L484.268841,314.221941 C507.005615,291.040657 519.899429,260.150816 519.899429,227.308919 C519.899429,158.921081 464.458275,103.487602 396.065391,103.487602 C351.832536,103.487602 311.624108,126.904423 289.496899,164.247272 L338.740546,164.243129 C316.603808,126.898528 276.407776,103.487602 232.168149,103.487602 C163.785427,103.487602 108.346832,158.923639 108.346832,227.308919 C108.346832,260.151035 121.240719,291.030163 143.791396,314.014998 L293.87404,464.213963 L293.87404,464.213963 Z" id="Shape"></path>
                        <path d="M315.722733,669.244422 C344.731826,669.244422 368.258385,692.764621 368.258385,721.760994 C368.258385,750.776447 344.731826,774.283925 315.722733,774.283925 C286.72,774.283925 263.206161,750.776447 263.206161,721.760994 C263.206161,692.764621 286.72,669.244422 315.722733,669.244422 L315.722733,669.244422 Z" id="Shape"></path>
                    </g>
                </g>
            </g>
            <g id="Group-3" transform="translate(0.000000, 1152.000000)" fill="#000000">
                <g id="Group-2">
                    <g id="podlove" transform="translate(1920.405466, 0.000000)">
                        <g id="Page-1" transform="translate(0.000000, 0.000000)">
                            <g id="podlove_text" transform="translate(0.000000, 0.000000)">
                                <g id="Page-1" transform="translate(0.000000, 0.000000)">
                                    <g id="podlove_text" transform="translate(0.000000, 0.000000)">
                                        <g id="Page-1" transform="translate(0.000000, 0.000000)">
                                            <g id="Group-2" transform="translate(0.000000, 0.000000)">
                                                <g id="podlove_logo" transform="translate(0.000000, 0.000000)">
                                                    <g id="Group" transform="translate(0.000000, 0.000000)">
                                                        <path d="M215.525642,285.677145 L47.203424,285.677145 L47.203424,325.776152 L47.203424,364.979714 L1.8189894e-12,364.979714 L1.8189894e-12,115.489136 L1.8189894e-12,76.2811186 L215.525642,76.2811186 C263.61516,76.2811186 281.430545,103.01082 281.430545,141.327847 L281.430545,220.634871 C281.430545,258.947443 263.61516,285.677145 215.525642,285.677145 L215.525642,285.677145 L215.525642,285.677145 L215.525642,285.677145 L215.525642,285.677145 Z M234.227121,133.308937 C234.227121,121.721611 229.774388,117.266661 219.533102,117.266661 L61.8929906,117.266661 C51.6517044,117.266661 47.1989713,121.721611 47.1989713,133.308937 L47.1989713,228.649327 C47.1989713,240.236652 51.6517044,244.691602 61.8929906,244.691602 L219.528649,244.691602 C229.769935,244.691602 234.222669,240.236652 234.222669,228.649327 L234.222669,133.308937 L234.227121,133.308937 L234.227121,133.308937 L234.227121,133.308937 L234.227121,133.308937 Z" id="Shape"></path>
                                                        <path d="M534.336882,285.677145 L370.462944,285.677145 C323.25952,285.677145 309.901321,266.075364 309.901321,222.412396 L309.901321,139.545867 C309.901321,95.8828997 323.25952,76.2811186 370.462944,76.2811186 L534.336882,76.2811186 C581.540306,76.2811186 594.898505,95.8828997 594.898505,139.545867 L594.898505,222.412396 C594.898505,266.075364 581.540306,285.677145 534.336882,285.677145 L534.336882,285.677145 L534.336882,285.677145 L534.336882,285.677145 L534.336882,285.677145 Z M547.695081,134.199927 C547.695081,122.171561 544.132895,117.266661 531.665242,117.266661 L372.24849,117.266661 C360.671384,117.266661 357.109198,122.171561 357.109198,134.199927 L357.109198,227.758337 C357.109198,239.786702 360.671384,244.691602 372.24849,244.691602 L531.665242,244.691602 C544.132895,244.691602 547.695081,239.786702 547.695081,227.758337 L547.695081,134.199927 L547.695081,134.199927 L547.695081,134.199927 L547.695081,134.199927 L547.695081,134.199927 Z" id="Shape"></path>
                                                        <path d="M689.274184,285.677145 C639.39912,285.677145 623.369281,260.724968 623.369281,220.630416 L623.369281,141.327847 C623.369281,99.4513148 639.844394,76.2811186 689.274184,76.2811186 L857.596402,76.2811186 L857.596402,0.542509691 L904.799826,0.542509691 L904.799826,246.469128 L904.799826,285.677145 L689.274184,285.677145 L689.274184,285.677145 L689.274184,285.677145 L689.274184,285.677145 L689.274184,285.677145 Z M857.600855,133.308937 C857.600855,121.721611 853.148122,117.266661 842.906836,117.266661 L685.271177,117.266661 C675.029891,117.266661 670.577158,121.721611 670.577158,133.308937 L670.577158,228.649327 C670.577158,240.236652 675.029891,244.691602 685.271177,244.691602 L842.906836,244.691602 C853.148122,244.691602 857.600855,240.236652 857.600855,228.649327 L857.600855,133.308937 L857.600855,133.308937 L857.600855,133.308937 L857.600855,133.308937 L857.600855,133.308937 Z" id="Shape"></path>
                                                        <polygon id="Shape" points="939.958607 285.677145 939.958607 0.542509691 987.162031 0.542509691 987.162031 285.677145 939.958607 285.677145 939.958607 285.677145 939.958607 285.677145"></polygon>
                                                        <path d="M1245.87473,285.677145 L1082.00079,285.677145 C1034.79737,285.677145 1021.43917,266.075364 1021.43917,222.412396 L1021.43917,139.545867 C1021.43917,95.8828997 1034.79737,76.2811186 1082.00079,76.2811186 L1245.87473,76.2811186 C1293.07816,76.2811186 1306.43636,95.8828997 1306.43636,139.545867 L1306.43636,222.412396 C1306.4319,266.075364 1293.0737,285.677145 1245.87473,285.677145 L1245.87473,285.677145 L1245.87473,285.677145 L1245.87473,285.677145 L1245.87473,285.677145 Z M1259.23293,134.199927 C1259.23293,122.171561 1255.67074,117.266661 1243.19864,117.266661 L1083.78189,117.266661 C1072.20033,117.266661 1068.64259,122.171561 1068.64259,134.199927 L1068.64259,227.758337 C1068.64259,239.786702 1072.20478,244.691602 1083.78189,244.691602 L1243.19864,244.691602 C1255.67074,244.691602 1259.23293,239.786702 1259.23293,227.758337 L1259.23293,134.199927 L1259.23293,134.199927 L1259.23293,134.199927 L1259.23293,134.199927 L1259.23293,134.199927 Z" id="Shape"></path>
                                                        <polygon id="Shape" points="1490.75279 285.677145 1489.41697 285.677145 1436.87027 285.677145 1435.53445 285.677145 1307.28683 76.2811186 1361.16935 76.2811186 1463.14139 242.905167 1565.11343 76.2811186 1618.99596 76.2811186 1490.75279 285.677145 1490.75279 285.677145 1490.75279 285.677145"></polygon>
                                                        <path d="M1667.06321,203.701605 L1667.06321,223.303386 C1667.06321,238.450217 1674.19204,244.691602 1691.10797,244.691602 L1860.32074,244.691602 L1860.32074,285.677145 L1680.42141,285.677145 C1633.21799,285.677145 1619.85979,266.520859 1619.85979,222.412396 L1619.85979,139.545867 C1619.85979,95.8828997 1630.54635,76.2811186 1680.42141,76.2811186 L1840.28344,76.2811186 C1890.1585,76.2811186 1900.84506,93.6554246 1900.84506,139.545867 L1900.84506,203.69715 L1667.06321,203.69715 L1667.06321,203.701605 L1667.06321,203.701605 L1667.06321,203.701605 L1667.06321,203.701605 Z M1856.31773,134.199927 C1856.31773,122.171561 1852.75109,117.266661 1841.17844,117.266661 L1682.20696,117.266661 C1670.6254,117.266661 1667.06766,122.171561 1667.06766,134.199927 L1667.06766,162.711608 L1856.32218,162.711608 L1856.32218,134.199927 L1856.31773,134.199927 L1856.31773,134.199927 L1856.31773,134.199927 L1856.31773,134.199927 Z" id="Shape"></path>
                                                    </g>
                                                </g>
                                            </g>
                                        </g>
                                    </g>
                                </g>
                            </g>
                        </g>
                    </g>
                    <path d="M163.828334,196.747515 C163.828334,223.78479 157.473251,245.609042 144.762896,262.220927 C132.05254,278.832811 114.361365,287.138629 91.6888388,287.138629 C81.1541298,287.138629 71.8218916,285.24834 63.6918444,281.467704 C55.5617972,277.687068 48.5769318,272.130762 42.7370388,264.79862 L42.7370388,355.017888 L0.999188147,355.017888 L0.999188147,97.5922432 L36.2101321,97.5922432 L40.3323889,120.96333 C46.2867897,112.256411 53.4720406,105.611757 61.888357,101.029168 C70.3046735,96.4465788 80.0663091,94.1553187 91.1735567,94.1553187 C114.075098,94.1553187 131.909406,103.234437 144.677015,121.392945 C157.444625,139.551454 163.828334,163.466481 163.828334,193.138744 L163.828334,196.747515 Z M122.262244,193.138744 C122.262244,174.121 118.683932,158.569072 111.5272,146.482494 C104.370468,134.395916 93.6927847,128.352717 79.493829,128.352717 C70.7912432,128.352717 63.4056069,130.214366 57.3366984,133.93772 C51.2677899,137.661073 46.4012854,142.845049 42.7370388,149.489803 L42.7370388,233.522607 C46.4012854,240.052796 51.2677899,245.064928 57.3366984,248.559152 C63.4056069,252.053376 70.9057492,253.800462 79.8373504,253.800462 C94.0363061,253.800462 104.656737,248.559204 111.698961,238.076532 C118.741185,227.59386 122.262244,213.817659 122.262244,196.747515 L122.262244,193.138744 Z M193.625554,188.842589 C193.625554,161.117926 201.211576,138.40581 216.383847,120.70556 C231.556118,103.005311 252.310329,94.1553187 278.647102,94.1553187 C305.327398,94.1553187 326.253367,103.005311 341.425638,120.70556 C356.59791,138.40581 364.183931,161.117926 364.183931,188.842589 L364.183931,192.451359 C364.183931,220.405152 356.59791,243.174549 341.425638,260.760234 C326.253367,278.345919 305.441904,287.138629 278.990623,287.138629 C252.424835,287.138629 231.556118,278.317278 216.383847,260.674311 C201.211576,243.031343 193.625554,220.290587 193.625554,192.451359 L193.625554,188.842589 Z M235.363405,192.451359 C235.363405,210.66715 238.913091,225.445778 246.012568,236.787685 C253.112046,248.129593 264.104621,253.800462 278.990623,253.800462 C293.533102,253.800462 304.439798,248.100952 311.711037,236.701762 C318.982276,225.302572 322.617842,210.552586 322.617842,192.451359 L322.617842,188.842589 C322.617842,171.085057 318.982276,156.449633 311.711037,144.935878 C304.439798,133.422124 293.418596,127.665333 278.647102,127.665333 C264.104623,127.665333 253.25518,133.422124 246.098449,144.935878 C238.941717,156.449633 235.363405,171.085057 235.363405,188.842589 L235.363405,192.451359 Z M565.398333,228.36722 L566.428897,228.36722 L593.567088,97.5922432 L635.304938,97.5922432 L584.463771,283.529859 L550.283391,283.529859 L510.95019,160.487962 L509.919626,160.487962 L471.101707,283.529859 L436.921327,283.529859 L386.08016,97.5922432 L427.81801,97.5922432 L455.643244,226.648758 L456.673808,226.648758 L495.491727,97.5922432 L525.893371,97.5922432 L565.398333,228.36722 Z M744.455603,287.138629 C717.317277,287.138629 696.105042,278.575045 680.818263,261.447619 C665.531484,244.320193 657.888209,222.123611 657.888209,194.857207 L657.888209,187.983358 C657.888209,160.716953 665.531484,138.233964 680.818263,120.533714 C696.105042,102.833465 715.828699,94.040754 739.989825,94.1553187 C764.952505,94.1553187 783.845994,101.859681 796.670857,117.268636 C809.49572,132.677591 815.908055,153.270291 815.908055,179.047354 L815.908055,201.559209 L701.000146,201.559209 L700.656624,202.41844 C701.114655,217.655549 705.122365,230.028353 712.679873,239.537225 C720.237382,249.046097 731.630728,253.800462 746.860253,253.800462 C758.196516,253.800462 768.015405,252.425706 776.317214,249.676152 C784.619022,246.926599 792.31955,242.974175 799.419028,237.818763 L812.988123,265.142312 C805.888646,271.328808 796.499154,276.541424 784.819368,280.780319 C773.139582,285.019214 759.685128,287.138629 744.455603,287.138629 L744.455603,287.138629 Z M739.989825,127.665333 C729.111593,127.665333 720.409138,131.589115 713.882198,139.436799 C707.355259,147.284482 703.290296,157.509231 701.687188,170.11135 L702.03071,170.970581 L774.685487,170.970581 L774.685487,167.705503 C774.685487,155.790772 771.908717,146.138839 766.355093,138.749414 C760.801469,131.359989 752.013134,127.665333 739.989825,127.665333 L739.989825,127.665333 Z M943.437115,135.226566 L925.574002,134.539182 C917.443955,134.539182 910.659475,136.257627 905.220359,139.694568 C899.781243,143.13151 895.573148,148.000438 892.595948,154.301497 L892.595948,283.529859 L850.858097,283.529859 L850.858097,97.5922432 L888.988973,97.5922432 L891.737144,124.572101 C896.43196,115.063229 902.472151,107.616633 909.857898,102.232091 C917.243645,96.8475493 925.745715,94.1553187 935.364362,94.1553187 C937.883532,94.1553187 940.230905,94.355804 942.406551,94.7567805 C944.582198,95.157757 946.586052,95.6446498 948.418176,96.2174734 L943.437115,135.226566 Z M1051.04193,287.138629 C1023.90361,287.138629 1002.69137,278.575045 987.404594,261.447619 C972.117815,244.320193 964.47454,222.123611 964.47454,194.857207 L964.47454,187.983358 C964.47454,160.716953 972.117815,138.233964 987.404594,120.533714 C1002.69137,102.833465 1022.41503,94.040754 1046.57616,94.1553187 C1071.53884,94.1553187 1090.43232,101.859681 1103.25719,117.268636 C1116.08205,132.677591 1122.49439,153.270291 1122.49439,179.047354 L1122.49439,201.559209 L1007.58648,201.559209 L1007.24295,202.41844 C1007.70099,217.655549 1011.7087,230.028353 1019.2662,239.537225 C1026.82371,249.046097 1038.21706,253.800462 1053.44658,253.800462 C1064.78285,253.800462 1074.60174,252.425706 1082.90354,249.676152 C1091.20535,246.926599 1098.90588,242.974175 1106.00536,237.818763 L1119.57445,265.142312 C1112.47498,271.328808 1103.08549,276.541424 1091.4057,280.780319 C1079.72591,285.019214 1066.27146,287.138629 1051.04193,287.138629 L1051.04193,287.138629 Z M1046.57616,127.665333 C1035.69792,127.665333 1026.99547,131.589115 1020.46853,139.436799 C1013.94159,147.284482 1009.87663,157.509231 1008.27352,170.11135 L1008.61704,170.970581 L1081.27182,170.970581 L1081.27182,167.705503 C1081.27182,155.790772 1078.49505,146.138839 1072.94142,138.749414 C1067.3878,131.359989 1058.59946,127.665333 1046.57616,127.665333 L1046.57616,127.665333 Z M1149.7152,193.138744 C1149.7152,163.466481 1156.07028,139.551454 1168.78063,121.392945 C1181.49099,103.234437 1199.35392,94.1553187 1222.36997,94.1553187 C1232.44665,94.1553187 1241.464,96.188812 1249.42228,100.25586 C1257.38057,104.322907 1264.27956,110.13698 1270.11945,117.698252 L1270.11945,15.4497477 L1311.8573,15.4497477 L1311.8573,283.529859 L1278.02044,283.529859 L1273.03938,259.986926 C1267.08498,268.808409 1259.8711,275.538986 1251.39753,280.178857 C1242.92396,284.818728 1233.1337,287.138629 1222.02645,287.138629 C1199.23942,287.138629 1181.49099,278.832811 1168.78063,262.220927 C1156.07028,245.609042 1149.7152,223.78479 1149.7152,196.747515 L1149.7152,193.138744 Z M1191.45305,196.747515 C1191.45305,213.932223 1194.74509,227.622502 1201.32929,237.818763 C1207.91348,248.015023 1218.36215,253.113077 1232.67562,253.113077 C1241.49271,253.113077 1248.96422,251.222787 1255.09039,247.442151 C1261.21655,243.661515 1266.22619,238.277054 1270.11945,231.288606 L1270.11945,150.177188 C1266.22619,143.303305 1261.18792,137.947484 1255.00451,134.109566 C1248.82109,130.271648 1241.49271,128.352717 1233.01914,128.352717 C1218.82018,128.352717 1208.34288,134.338634 1201.58693,146.310648 C1194.83097,158.282662 1191.45305,173.891871 1191.45305,193.138744 L1191.45305,196.747515 Z M1609.68383,196.747515 C1609.68383,223.899354 1603.35738,245.752247 1590.70428,262.30685 C1578.05117,278.861452 1560.21687,287.138629 1537.20082,287.138629 C1525.52103,287.138629 1515.38725,284.732806 1506.79917,279.921088 C1498.2111,275.109369 1491.05447,268.121026 1485.32909,258.955848 L1480.34802,283.529859 L1446.51117,283.529859 L1446.51117,15.4497477 L1488.24902,15.4497477 L1488.24902,118.729329 C1493.9744,110.824363 1500.84476,104.752524 1508.8603,100.513629 C1516.87584,96.2747343 1526.20808,94.1553187 1536.8573,94.1553187 C1560.10236,94.1553187 1578.05117,103.205796 1590.70428,121.307022 C1603.35738,139.408248 1609.68383,163.351916 1609.68383,193.138744 L1609.68383,196.747515 Z M1567.94598,193.138744 C1567.94598,173.777306 1564.62531,158.139456 1557.98386,146.224725 C1551.34242,134.309994 1540.80786,128.352717 1526.37989,128.352717 C1517.10477,128.352717 1509.34699,130.414852 1503.10632,134.539182 C1496.86565,138.663512 1491.91326,144.391662 1488.24902,151.723804 L1488.24902,229.74199 C1491.79876,237.188697 1496.72251,242.945488 1503.02044,247.012536 C1509.31836,251.079583 1517.21927,253.113077 1526.72341,253.113077 C1541.15139,253.113077 1551.62868,248.043664 1558.15562,237.904686 C1564.68256,227.765708 1567.94598,214.046788 1567.94598,196.747515 L1567.94598,193.138744 Z M1708.52886,208.948597 L1712.65111,227.507989 L1713.68168,227.507989 L1754.38896,97.5922432 L1800.07731,97.5922432 L1723.12852,311.712639 C1718.20468,324.658453 1711.27707,335.713783 1702.34547,344.878961 C1693.41387,354.044139 1680.76096,358.626659 1664.38636,358.626659 C1660.95112,358.626659 1657.25831,358.28297 1653.30779,357.595582 C1649.35727,356.908193 1645.54995,356.106252 1641.8857,355.189734 L1646.52324,322.882644 C1648.01184,322.997209 1650.1302,323.169053 1652.87839,323.398183 C1655.62657,323.627312 1657.68768,323.741875 1659.06177,323.741875 C1666.61928,323.741875 1672.65947,321.164208 1677.18253,316.008795 C1681.70558,310.853383 1685.3984,304.896106 1688.26109,298.136788 L1695.13152,281.295858 L1627.62957,97.5922432 L1673.14615,97.5922432 L1708.52886,208.948597 Z" id="powered-by"></path>
                </g>
            </g>
        </g>
    </g>
</svg>